<?xml version="1.0" encoding="UTF-8" standalone="no"?>
<!-- Created with Inkscape (http://www.inkscape.org/) -->

<svg
   width="400mm"
   height="300mm"
   viewBox="0 0 400 300"
   version="1.1"
   id="svg5"
   xml:space="preserve"
   inkscape:export-filename="pictogram.svg"
   inkscape:export-xdpi="96"
   inkscape:export-ydpi="96"
   sodipodi:docname="pictogram_bg.svg"
   inkscape:version="1.2.2 (b0a8486541, 2022-12-01)"
   xmlns:inkscape="http://www.inkscape.org/namespaces/inkscape"
   xmlns:sodipodi="http://sodipodi.sourceforge.net/DTD/sodipodi-0.dtd"
   xmlns="http://www.w3.org/2000/svg"
   xmlns:svg="http://www.w3.org/2000/svg"><sodipodi:namedview
     id="namedview7"
     pagecolor="#ffffff"
     bordercolor="#000000"
     borderopacity="0.25"
     inkscape:showpageshadow="2"
     inkscape:pageopacity="0.0"
     inkscape:pagecheckerboard="0"
     inkscape:deskcolor="#d1d1d1"
     inkscape:document-units="mm"
     showgrid="false"
     inkscape:zoom="0.72936806"
     inkscape:cx="757.50507"
     inkscape:cy="566.24361"
     inkscape:window-width="1854"
     inkscape:window-height="1043"
     inkscape:window-x="0"
     inkscape:window-y="0"
     inkscape:window-maximized="1"
     inkscape:current-layer="layer1" /><defs
     id="defs2" /><g
     inkscape:groupmode="layer"
     id="layer2"
     inkscape:label="레이어 2"><rect
       style="fill:#2eb555;fill-opacity:1;stroke-width:1.42067"
       id="rect289"
       width="378.85382"
       height="300"
       x="10.57309"
       y="0"
       ry="53.42445"
       rx="50.600143" /></g><g
     inkscape:label="레이어 1"
     inkscape:groupmode="layer"
     id="layer1"
     transform="matrix(0.85149494,0,0,0.85149494,29.700872,22.275908)"><path
       d="m 63.365208,190.75444 c -7.77875,-7.88459 -7.77875,-20.69042 0,-28.575 7.77875,-7.88459 20.37291,-7.88459 28.15166,0 l 4.68313,4.7625 4.683122,-4.7625 c 7.77875,-7.88459 20.37292,-7.88459 28.15167,0 7.77875,7.88458 7.77875,20.69041 0,28.575 l -26.88167,27.305 c -1.64041,1.66687 -3.783542,2.48708 -5.953122,2.48708 -2.16958,0 -4.31271,-0.82021 -5.95313,-2.48708 z m 106.971042,52.75791 c 3.46604,4.70959 2.46062,11.32417 -2.24896,14.79021 l -33.49625,24.68563 c -6.19125,4.55083 -13.6525,7.01146 -21.35187,7.01146 H 70.799998 28.46667 C 23.78354,289.99965 20,286.2161 20,281.53298 v -16.93333 c 0,-4.68313 3.78354,-8.46667 8.46667,-8.46667 h 9.736658 l 11.87979,-9.525 c 6.00605,-4.81542 13.4673,-7.40833 21.16667,-7.40833 h 20.71688 4.23333 16.933332 c 4.68313,0 8.46667,3.78354 8.46667,8.46666 0,4.68313 -3.78354,8.46667 -8.46667,8.46667 h -16.933332 -4.23333 c -2.32834,0 -4.23334,1.905 -4.23334,4.23333 0,2.32834 1.905,4.23334 4.23334,4.23334 h 31.908752 l 31.67062,-23.33625 c 4.70958,-3.46605 11.32417,-2.46063 14.79021,2.24895 z m -99.112922,12.62063 c 0,0 0,0 0,0 h -0.23812 c 0.0794,0 0.15875,0 0.23812,0 z"
       id="path132"
       style="fill:#ffffff;stroke-width:0.264583" /><path
       d="m 299.567,180.80945 c -20.79624,0 -38.39104,13.62604 -44.37062,32.41146 8.89001,-4.49792 18.91771,-7.01146 29.55396,-7.01146 h 23.28333 c 2.32833,0 4.23333,1.905 4.23333,4.23334 0,2.32833 -1.905,4.23333 -4.23333,4.23333 h -4.23333 -19.05 c 0,0 0,0 0,0 -4.39209,0 -8.65188,0.50271 -12.77938,1.42875 -6.85271,1.56104 -13.20271,4.33917 -18.89125,8.12271 0,0 0,0 0,0 -15.34583,10.23937 -25.47937,27.72833 -25.47937,47.59854 v 4.23333 c 0,3.51896 2.83104,6.35 6.35,6.35 3.51895,0 6.35,-2.83104 6.35,-6.35 v -4.23333 c 0,-12.88521 5.47687,-24.47396 14.23458,-32.59667 5.23875,19.97604 23.41561,34.71333 45.03208,34.71333 h 0.26459 c 34.95146,-0.18521 63.2354,-34.63395 63.2354,-77.09958 0,-11.27125 -1.98437,-21.98687 -5.58271,-31.64416 -0.68792,-1.82563 -3.36021,-1.74625 -4.28625,-0.0265 -4.97417,9.31333 -14.81666,15.63687 -26.11437,15.63687 z"
       id="path141"
       style="fill:#ffffff;stroke-width:0.264583" /><path
       d="M 30.606868,76.263346 C 31.21541,40.332929 56.377286,14.77418 87.174786,10.620222 123.89896,5.6989722 154.8023,30.675638 160.72897,63.827929 c 5.63562,31.4325 -11.64168,60.854161 -40.11084,72.495831 -2.46063,1.00541 -3.81001,0.44979 -4.76251,-2.0373 q -7.06437,-18.38854 -14.12875,-36.777072 c -0.82021,-2.143125 -0.26458,-3.4925 1.85208,-4.445 6.40292,-2.910417 10.39813,-7.77875 11.45646,-14.76375 A 18.917708,18.917708 0 0 0 97.969786,56.551888 c -10.31875,-0.899584 -18.997083,6.270625 -20.505208,15.795625 -1.375833,8.73125 2.936875,16.853958 11.086042,20.558125 2.54,1.164166 3.042708,2.275416 2.06375,4.868333 Q 83.497078,116.26834 76.406245,134.78917 c -0.687917,1.82563 -2.196042,2.46063 -4.101042,1.71979 C 58.38812,131.13792 45.476453,120.36938 37.697703,105.02355 31.109577,92.006054 31.030202,81.819596 30.606868,76.263346 Z m 5.529793,-0.502708 c 0.105833,1.74625 0.15875,3.783541 0.343958,5.847291 1.666875,19.023541 13.123334,37.967701 34.660417,48.445201 0.846667,0.39688 1.164167,0.21167 1.481667,-0.60854 q 5.926667,-15.53104 11.90625,-31.035619 c 0.343958,-0.873125 0.15875,-1.27 -0.635,-1.772708 -8.360833,-5.265209 -12.514792,-12.832292 -12.065,-22.754167 0.264583,-5.715 2.460625,-10.715625 6.297083,-14.896042 7.9375,-8.651875 20.372917,-10.530416 30.559374,-4.656666 a 24.235833,24.235833 0 0 1 11.95917,23.918333 c -0.9525,8.09625 -5.10646,14.261042 -12.09146,18.467917 -0.71437,0.423333 -0.92604,0.767291 -0.60854,1.5875 q 6.0325,15.557492 11.95917,31.141452 c 0.3175,0.82021 0.635,1.00542 1.48167,0.60854 9.39271,-4.39208 17.25083,-10.66271 23.30979,-19.05 9.20751,-12.752909 12.99105,-26.961034 11.19188,-42.597909 C 152.2623,37.316679 124.29583,11.572722 88.286036,16.017722 60.213745,19.457305 36.612911,43.137513 36.136661,75.760638 Z"
       id="path150"
       style="fill:#ffffff;stroke-width:0.264583" /><path
       d="m 229.717,28.959778 a 14.816667,14.816667 0 1 1 29.63333,0 14.816667,14.816667 0 1 1 -29.63333,0 z m -2.11667,41.72479 c -2.64583,2.96333 -4.23333,6.90563 -4.23333,11.19188 0,4.28625 1.5875,8.22854 4.23333,11.19187 v -22.41021 z m 38.20584,-13.04396 c -7.85813,6.95854 -12.80584,17.145 -12.80584,28.46917 0,9.07521 3.175,17.409582 8.46667,23.944792 v 5.68855 c 0,4.68312 -3.78354,8.46666 -8.46667,8.46666 H 236.067 c -4.68312,0 -8.46667,-3.78354 -8.46667,-8.46666 v -7.09084 C 217.59908,103.88978 210.667,93.703318 210.667,81.876448 c 0,-16.37771 13.25563,-29.63334 29.63333,-29.63334 h 8.46667 c 6.35,0 12.22375,1.98438 17.03917,5.37104 z m 63.39416,58.102512 v -5.68855 c 5.29167,-6.53521 8.46667,-14.869582 8.46667,-23.944792 0,-11.32417 -4.94771,-21.51063 -12.80583,-28.49563 4.81541,-3.38666 10.68916,-5.37104 17.03916,-5.37104 h 8.46667 c 16.37771,0 29.63333,13.25563 29.63333,29.63334 0,11.82687 -6.93208,22.013332 -16.93333,26.775832 v 7.09084 c 0,4.68312 -3.78354,8.46666 -8.46667,8.46666 H 337.667 c -4.68313,0 -8.46667,-3.78354 -8.46667,-8.46666 z M 331.317,28.959778 a 14.816667,14.816667 0 1 1 29.63333,0 14.816667,14.816667 0 1 1 -29.63333,0 z m 31.75,41.72479 v 22.41021 c 2.64583,-2.98979 4.23333,-6.90563 4.23333,-11.19188 0,-4.28625 -1.5875,-8.22854 -4.23333,-11.19187 z m -67.73333,-56.54146 a 16.933335,16.933335 0 1 1 0,33.86667 16.933335,16.933335 0 1 1 0,-33.86667 z M 274.167,86.109778 c 0,4.28625 1.5875,8.20208 4.23333,11.19187 v -22.4102 c -2.64583,2.98979 -4.23333,6.90562 -4.23333,11.19187 z m 38.1,-11.19188 v 22.41021 c 2.64583,-2.98979 4.23333,-6.90562 4.23333,-11.19187 0,-4.28625 -1.5875,-8.22854 -4.23333,-11.19188 z m 16.93333,11.19188 c 0,11.82687 -6.93208,22.013342 -16.93333,26.775842 v 11.32416 c 0,4.68313 -3.78354,8.46667 -8.46667,8.46667 H 286.867 c -4.68313,0 -8.46667,-3.78354 -8.46667,-8.46667 V 112.88562 C 268.39908,108.12312 261.467,97.936648 261.467,86.109778 c 0,-16.37771 13.25563,-29.63333 29.63333,-29.63333 h 8.46667 c 16.37771,0 29.63333,13.25562 29.63333,29.63333 z"
       id="path159"
       style="fill:#ffffff;stroke-width:0.264583" /></g></svg>
